Coordinates
version=1
nRows=19
nColumns=33
inDegrees=yes

Units are S.I. units (second, meters, Newtons, ...)
Angles are in degrees.

endheader
time	ground_thorax_rot_x	ground_thorax_rot_y	ground_thorax_rot_z	ground_thorax_tx	ground_thorax_ty	ground_thorax_tz	clav_prot_r	clav_elev_r	scapula_abduction_r	scapula_elevation_r	scapula_upward_rot_r	scapula_winging_r	shoulder_elv_r	plane_of_elev_r	axial_rot_r	elbow_flexion_r	pro_sup_r	wrist_flex_r	wrist_dev_r	clav_prot_l	clav_elev_l	scapula_abduction_l	scapula_elevation_l	scapula_upward_rot_l	scapula_winging_l	shoulder_elv_l	plane_of_elev_l	axial_rot_l	elbow_flexion_l	pro_sup_l	wrist_flex_l	wrist_dev_l	
4.5800	-40.946508	-6.462459	1.140859	-56.641816	802.141943	8.486660	6.239966	-45.000000	44.999951	-45.000000	-12.452639	-2251.177554	-1016.592948	28.942677	75.632396	3250.575090	9.879559	18.254576	11.334002	16.379159	41.184725	-44.999986	-40.609224	-28.518361	1880.086823	-1374.719959	24.621742	-22.539576	1084.945729	12.973395	13.830503	-17.756117	
4.5900	-40.768230	-6.792261	1.146332	-55.032213	800.160640	8.702060	6.349286	-45.000000	44.999912	-45.000000	-12.744862	-2250.980330	-1016.746406	28.813686	76.037837	3250.461248	9.566807	18.041599	11.306222	16.321515	40.895661	-44.999975	-40.255251	-28.569386	1880.011087	-1374.735960	24.581845	-22.578894	1084.797316	13.299950	13.826815	-17.696899	
4.6000	-40.598789	-7.117145	1.133405	-53.537609	798.263852	8.895773	6.452661	-45.000000	44.999843	-45.000000	-13.025645	-2250.788363	-1016.883964	28.695480	76.406391	3250.355150	9.269771	17.831373	11.282748	16.288490	40.616142	-44.999955	-39.913388	-28.618360	1879.936455	-1374.716115	24.529375	-22.594207	1084.644294	13.616907	13.828783	-17.640161	
4.6100	-40.428980	-7.398075	1.075953	-52.283208	796.553783	9.043534	6.522978	-45.000000	44.999718	-45.000000	-13.234851	-2250.651633	-1017.018504	28.599715	76.802623	3250.247116	8.978694	17.660954	11.258894	16.195734	40.356639	-44.999920	-39.585770	-28.590496	1879.905037	-1374.710190	24.479015	-22.652938	1084.504937	13.975323	13.783226	-17.607004	
4.6200	-40.265493	-7.631727	0.963388	-51.295158	795.036431	9.140545	6.549083	-45.000000	44.999495	-45.000000	-13.366287	-2250.541841	-1017.135212	28.507331	77.186716	3250.145467	8.713767	17.521535	11.252769	16.108969	40.126611	-44.999856	-39.292798	-28.490281	1879.897115	-1374.718795	24.425210	-22.712271	1084.372516	14.349280	13.707548	-17.593654	
4.6300	-40.108175	-7.828876	0.808821	-50.615591	793.729522	9.179232	6.542930	-45.000000	44.999095	-45.000000	-13.439125	-2250.465996	-1017.231896	28.418977	77.555153	3250.054940	8.493709	17.415855	11.263324	16.020932	39.935464	-44.999742	-39.031201	-28.343516	1879.920747	-1374.732699	24.369966	-22.760738	1084.256605	14.727868	13.597034	-17.601945	
4.6400	-39.963586	-7.983354	0.610781	-50.258634	792.623878	9.158037	6.506738	-45.000000	44.998379	-45.000000	-13.463548	-2250.413943	-1017.311792	28.326814	77.889346	3249.973978	8.340255	17.338141	11.292529	15.963149	39.792159	-44.999539	-38.820038	-28.165644	1879.961197	-1374.756921	24.320968	-22.786232	1084.157537	15.096287	13.467207	-17.629414	
4.6500	-39.831586	-8.114172	0.394719	-50.224481	791.698214	9.078632	6.462230	-45.000000	44.997097	-45.000000	-13.477198	-2250.386364	-1017.374330	28.231148	78.188312	3249.906356	8.274476	17.285329	11.335521	15.927618	39.703985	-44.999174	-38.654823	-27.999355	1880.015981	-1374.780463	24.281145	-22.778773	1084.076984	15.440636	13.321274	-17.671667	
4.6600	-39.712872	-8.221581	0.169740	-50.511501	790.932385	8.943341	6.424473	-45.000000	44.994798	-45.000000	-13.504394	-2250.393554	-1017.429212	28.145616	78.462044	3249.844709	8.310927	17.252096	11.375032	15.906678	39.653301	-44.998519	-38.540364	-27.867483	1880.077050	-1374.802152	24.258544	-22.755455	1084.016781	15.760133	13.177678	-17.726687	
4.6700	-39.601006	-8.332659	-0.030445	-51.116564	790.308073	8.754668	6.409109	-45.000000	44.990687	-45.000000	-13.579332	-2250.438169	-1017.465965	28.067891	78.730197	3249.797358	8.461713	17.240732	11.409741	15.876837	39.634528	-44.997349	-38.457425	-27.794407	1880.151620	-1374.813652	24.243048	-22.721275	1083.975435	16.048100	13.024902	-17.790873	
4.6800	-39.498609	-8.430503	-0.220346	-52.035683	789.809754	8.514708	6.416364	-45.000000	44.983303	-45.000000	-13.696651	-2250.525425	-1017.499682	28.011947	78.997421	3249.754696	8.730779	17.241769	11.420255	15.851957	39.629172	-44.995247	-38.418829	-27.779752	1880.223180	-1374.818376	24.241346	-22.700759	1083.948072	16.304864	12.895892	-17.861876	
4.6900	-39.400854	-8.534685	-0.379079	-53.263958	789.424408	8.224832	6.438794	-45.000000	44.970134	-45.000000	-13.863655	-2250.637028	-1017.510487	27.954320	79.284697	3249.727717	9.121789	17.258610	11.423938	15.833069	39.633988	-44.991497	-38.416570	-27.818672	1880.295850	-1374.832003	24.233059	-22.695138	1083.932933	16.519130	12.768755	-17.937955	
4.7000	-39.311681	-8.639576	-0.510536	-54.796090	789.141287	7.885865	6.480444	-45.000000	44.946380	-45.000000	-14.089965	-2250.782899	-1017.512365	27.912068	79.598811	3249.710878	9.630757	17.283049	11.402244	15.826449	39.636005	-44.984739	-38.449360	-27.923477	1880.367435	-1374.842792	24.227044	-22.722448	1083.932598	16.681180	12.665851	-18.018463	
4.7100	-39.227999	-8.772333	-0.586892	-56.626384	788.951075	7.498560	6.536511	-45.000000	44.904288	-45.000000	-14.401217	-2250.940301	-1017.482609	27.860302	79.951940	3249.715289	10.254839	17.319380	11.375408	15.832387	39.646528	-44.972748	-38.499723	-28.101341	1880.448425	-1374.848105	24.204755	-22.778486	1083.943513	16.772680	12.556427	-18.100439	
4.7200	-39.164477	-8.920366	-0.619738	-58.749169	788.845410	7.064125	6.613129	-45.000000	44.827613	-45.000000	-14.818660	-2251.118313	-1017.452314	27.823395	80.332512	3249.726164	10.984287	17.357145	11.317643	15.859144	39.679443	-44.950947	-38.588438	-28.381781	1880.525592	-1374.833549	24.188290	-22.877451	1083.970535	16.786372	12.470820	-18.183174	
4.7300	-39.134329	-9.125389	-0.562766	-61.158654	788.816350	6.584600	6.714592	-45.000000	44.693826	-45.000000	-15.412981	-2251.278885	-1017.402492	27.772192	80.730597	3249.753526	11.826992	17.399716	11.243216	15.923068	39.758879	-44.912791	-38.749057	-28.826558	1880.576631	-1374.804643	24.158157	-23.017123	1084.019830	16.708373	12.381398	-18.262501	
4.7400	-39.154173	-9.402255	-0.386130	-63.849280	788.856447	6.062904	6.840161	-45.000000	44.444239	-45.000000	-16.284336	-2251.408311	-1017.345519	27.729552	81.129266	3249.792571	12.787123	17.441901	11.136515	16.039413	39.885245	-44.841945	-39.013984	-29.503351	1880.566725	-1374.743266	24.141762	-23.164418	1084.084612	16.527626	12.311527	-18.335468	
4.7500	-39.227981	-9.785959	-0.051149	-66.815165	788.959226	5.502760	6.967452	-45.000000	44.024890	-45.000000	-17.523782	-2251.464050	-1017.254829	27.690534	81.518231	3249.849704	13.852476	17.482724	11.001549	16.197550	40.030207	-44.722009	-39.394695	-30.400134	1880.489608	-1374.661898	24.115395	-23.305734	1084.161558	16.252954	12.262717	-18.405453	
4.7600	-39.391423	-10.406695	0.633081	-70.050041	789.119817	4.908339	7.105568	-45.000000	43.196305	-45.000000	-19.588186	-2251.357317	-1017.103426	27.718941	81.857703	3249.922550	15.050969	17.521379	10.836781	16.473844	40.180698	-44.487717	-39.983225	-31.817087	1880.234625	-1374.506259	24.148762	-23.256369	1084.225618	15.838456	12.251535	-18.464596	
